<?xml version="1.0" encoding="UTF-8"?>
<svg xmlns="http://www.w3.org/2000/svg" version="1.1" viewBox="0 0 24 24">
  <!-- Generator: Adobe Illustrator 29.1.0, SVG Export Plug-In . SVG Version: 2.1.0 Build 142)  -->
  <defs>
    <style>
      .st0 {
        fill: #fff;
      }
    </style>
  </defs>
  <g id="Layer_1" focusable="false">
    <path class="st0" d="M9.5,9.8l-3.8,8.2,8.2-3.8,3.8-8.2-8.2,3.8ZM12.7,12.8c-.2.3-.5.5-.9.5,0,0-.1,0-.2,0-.3,0-.5,0-.8-.2-.3-.2-.5-.5-.5-.9,0-.4,0-.7.2-1,.2-.3.5-.5.9-.5.4,0,.7,0,1,.2.3.2.5.5.5.9,0,.3,0,.7-.2,1ZM11.7,3c5,0,9,4,9,9s-4,9-9,9S2.7,17,2.7,12,6.7,3,11.7,3M11.7,2C6.1,2,1.7,6.5,1.7,12s4.5,10,10,10,10-4.5,10-10S17.2,2,11.7,2h0Z"/>
  </g>
</svg>