<?xml version="1.0" encoding="UTF-8"?>
<svg xmlns="http://www.w3.org/2000/svg" version="1.1" viewBox="0 0 24 24">
  <!-- Generator: Adobe Illustrator 29.1.0, SVG Export Plug-In . SVG Version: 2.1.0 Build 142)  -->
  <defs>
    <style>
      .st0 {
        fill: #fff;
      }
    </style>
  </defs>
  <g id="Layer_1" focusable="false">
    <path class="st0" d="M10,20h4c0,1.1-.9,2-2,2s-2-.9-2-2ZM20,17.4v1.6H4v-1.6l2-1.9v-5.2c0-2.9,1.6-5.2,4-6v-.4c0-1.4,1.5-2.5,3-1.8.7.3,1,1,1,1.8v.4c2.4.8,4,3.1,4,6v5.1l2,1.9ZM19,17.8l-2-1.9v-5.5c0-2.5-1.2-4.4-3.1-5.1-1.3-.5-2.6-.5-3.8,0-1.9.8-3,2.6-3,5.1v5.5l-2,1.9v.2h14v-.2Z"/>
  </g>
</svg>