<?xml version="1.0" encoding="UTF-8"?>
<svg xmlns="http://www.w3.org/2000/svg" version="1.1" viewBox="0 0 24 24">
  <!-- Generator: Adobe Illustrator 29.1.0, SVG Export Plug-In . SVG Version: 2.1.0 Build 142)  -->
  <defs>
    <style>
      .st0 {
        fill: #fff;
      }
    </style>
  </defs>
  <g id="Layer_1" focusable="false">
    <path class="st0" d="M10,9.4l5,2.6-5,2.6v-5.3ZM12,6c-2.5,0-5.1,0-7.6.4-.5.1-.9.5-1.1,1.1-.3,1.5-.4,3-.4,4.6,0,1.5.1,3.1.4,4.6.1.5.5.9,1.1,1.1,2.5.3,5,.4,7.6.4,2.5,0,5.1,0,7.6-.4.5-.1.9-.5,1.1-1.1.3-1.5.4-3,.4-4.6,0-1.5-.1-3.1-.4-4.6-.1-.5-.5-.9-1.1-1.1-2.5-.3-5-.4-7.6-.4h0M12,5s6.2,0,7.8.4c.9.2,1.5.9,1.8,1.8.3,1.6.4,3.2.4,4.8,0,1.6-.1,3.2-.4,4.8-.2.9-.9,1.5-1.8,1.8-1.6.4-7.8.4-7.8.4,0,0-6.2,0-7.8-.4-.9-.2-1.5-.9-1.8-1.8-.3-1.6-.4-3.2-.4-4.8,0-1.6.1-3.2.4-4.8.2-.9.9-1.5,1.8-1.8,1.6-.4,7.8-.4,7.8-.4Z"/>
  </g>
</svg>