<?xml version="1.0" encoding="UTF-8"?>
<svg xmlns="http://www.w3.org/2000/svg" version="1.1" viewBox="0 0 24 24">
  <!-- Generator: Adobe Illustrator 29.1.0, SVG Export Plug-In . SVG Version: 2.1.0 Build 142)  -->
  <defs>
    <style>
      .st0 {
        fill: #fff;
      }
    </style>
  </defs>
  <g id="Layer_1" focusable="false">
    <path class="st0" d="M16,4v4h4v-4h-4ZM19,7h-2v-2h2v2ZM16,10v4h4v-4h-4ZM19,13h-2v-2h2v2ZM10,4v4h4v-4h-4ZM13,7h-2v-2h2v2ZM10,10v4h4v-4h-4ZM13,13h-2v-2h2v2ZM16,16v4h4v-4h-4ZM19,19h-2v-2h2v2ZM10,16v4h4v-4h-4ZM13,19h-2v-2h2v2ZM4,4v4h4v-4h-4ZM7,7h-2v-2h2v2ZM4,10v4h4v-4h-4ZM7,13h-2v-2h2v2ZM4,16v4h4v-4h-4ZM7,19h-2v-2h2v2Z"/>
  </g>
</svg>