<?xml version="1.0" encoding="UTF-8"?>
<svg xmlns="http://www.w3.org/2000/svg" version="1.1" viewBox="0 0 90 20">
  <!-- Generator: Adobe Illustrator 29.1.0, SVG Export Plug-In . SVG Version: 2.1.0 Build 142)  -->
  <defs>
    <style>
      .st0 {
        fill: #fff;
      }

      .st1 {
        fill: red;
      }
    </style>
  </defs>
  <g id="Layer_1" focusable="false">
    <g>
      <g>
        <path class="st1" d="M28,3.1c-.3-1.2-1.3-2.2-2.5-2.5C23.2,0,14.3,0,14.3,0c0,0-8.9,0-11.2.6C1.9.9.9,1.9.6,3.1,0,5.4,0,10,0,10c0,0,0,4.6.6,6.9.3,1.2,1.3,2.2,2.5,2.5,2.2.6,11.2.6,11.2.6,0,0,8.9,0,11.2-.6,1.2-.3,2.2-1.3,2.5-2.5.6-2.2.6-6.9.6-6.9,0,0,0-4.6-.6-6.9Z"/>
        <path class="st0" d="M11.4,14.3l7.4-4.3-7.4-4.3v8.6Z"/>
      </g>
      <g id="youtube-paths">
        <path class="st0" d="M34.6,13l-3.2-11.6h2.8l1.1,5.3c.3,1.3.5,2.4.6,3.3h0c0-.7.3-1.7.6-3.3l1.2-5.3h2.8l-3.2,11.6v5.6h-2.8v-5.6h0Z"/>
        <path class="st0" d="M41.5,18.2c-.6-.4-1-1-1.2-1.8-.2-.8-.4-1.9-.4-3.2v-1.8c0-1.3.1-2.4.4-3.2.3-.8.7-1.4,1.3-1.8.6-.4,1.3-.6,2.3-.6s1.7.2,2.2.6c.6.4,1,1,1.2,1.8.3.8.4,1.9.4,3.2v1.8c0,1.3-.1,2.4-.4,3.2-.3.8-.7,1.4-1.2,1.8-.6.4-1.3.6-2.3.6-1,0-1.8-.2-2.3-.6ZM44.6,16.2c.2-.4.2-1.1.2-2v-3.9c0-.9,0-1.6-.2-2-.2-.4-.4-.6-.8-.6s-.7.2-.8.6c-.2.4-.2,1.1-.2,2v3.9c0,.9,0,1.6.2,2,.2.4.4.6.8.6s.7-.2.8-.6Z"/>
        <path class="st0" d="M56.8,18.6h-2.2l-.2-1.5h0c-.6,1.2-1.5,1.7-2.7,1.7s-1.4-.3-1.8-.8c-.4-.5-.6-1.4-.6-2.6V6h2.8v9.2c0,.6,0,1,.2,1.2.1.2.3.4.6.4s.5,0,.7-.2c.2-.2.4-.3.5-.6V6h2.8v12.5Z"/>
        <path class="st0" d="M64.5,3.7h-2.8v14.9h-2.8V3.7h-2.8V1.4h8.4v2.3Z"/>
        <path class="st0" d="M71.3,18.6h-2.2l-.2-1.5h0c-.6,1.2-1.5,1.7-2.7,1.7s-1.4-.3-1.8-.8c-.4-.5-.6-1.4-.6-2.6V6h2.8v9.2c0,.6,0,1,.2,1.2.1.2.3.4.6.4s.5,0,.7-.2c.2-.2.4-.3.5-.6V6h2.8v12.5Z"/>
        <path class="st0" d="M80.6,8c-.2-.8-.4-1.4-.8-1.7-.4-.4-.9-.5-1.6-.5s-1,.1-1.5.4c-.4.3-.8.7-1,1.2h0V.8h-2.7v17.8h2.3l.3-1.2h0c.2.4.5.8,1,1,.4.2.9.4,1.5.4,1,0,1.7-.4,2.1-1.3.4-.9.7-2.3.7-4.1v-2c0-1.4,0-2.5-.3-3.3ZM78,13.1c0,.9,0,1.6-.1,2.1,0,.5-.2.9-.4,1.1-.2.2-.4.3-.7.3s-.4,0-.6-.2c-.2-.1-.4-.3-.5-.5v-7.1c0-.3.3-.6.5-.8.2-.2.5-.3.8-.3s.5.1.7.3c.2.2.3.6.3,1.1,0,.5,0,1.3,0,2.3v1.6h0Z"/>
        <path class="st0" d="M84.9,13.9c0,.8,0,1.4,0,1.8,0,.4.1.7.3.9.2.2.4.3.7.3s.7-.2.9-.5c.2-.3.2-.9.3-1.6h2.4c0,.3,0,.4,0,.6,0,1.2-.3,2-1,2.6-.6.6-1.5.9-2.7.9s-2.4-.4-2.9-1.3c-.6-.9-.8-2.2-.8-4v-2.2c0-1.9.3-3.3.9-4.1.6-.9,1.6-1.3,3-1.3s1.7.2,2.2.5c.5.4.9.9,1.1,1.7.2.8.3,1.8.3,3.1v2.1h-4.7v.6ZM85.2,8c-.1.2-.2.5-.3.9,0,.4,0,1,0,1.8v.9h2.1v-.9c0-.8,0-1.4,0-1.8,0-.4-.2-.7-.3-.9-.1-.2-.4-.3-.7-.3-.3,0-.5,0-.7.3Z"/>
      </g>
    </g>
  </g>
</svg>