<?xml version="1.0" encoding="UTF-8"?>
<svg xmlns="http://www.w3.org/2000/svg" version="1.1" viewBox="0 0 24 24">
  <!-- Generator: Adobe Illustrator 29.1.0, SVG Export Plug-In . SVG Version: 2.1.0 Build 142)  -->
  <defs>
    <style>
      .st0 {
        fill: #fff;
      }
    </style>
  </defs>
  <g id="Layer_1" focusable="false">
    <path class="st0" d="M10,9.4l5,2.6-5,2.6v-5.3ZM12,7c-2.8,0-5,2.2-5,5s2.2,5,5,5,5-2.2,5-5-2.2-5-5-5M12,6c3.3,0,6,2.7,6,6s-2.7,6-6,6-6-2.7-6-6,2.7-6,6-6ZM12,3C7,3,3,7,3,12s4,9,9,9,9-4,9-9S17,3,12,3M12,2c5.5,0,10,4.5,10,10s-4.5,10-10,10S2,17.5,2,12,6.5,2,12,2Z"/>
  </g>
</svg>